<svg width="100" height="100" viewBox="0 0 100 100" fill="none" xmlns="http://www.w3.org/2000/svg">
<rect width="100" height="100" fill="url(#paint0_radial_124_429)"/>
<path d="M71.5728 57.4137H63.2362L58.6683 49.3545C57.0059 46.4266 58.0363 42.6894 60.9668 41.0254C62.3831 40.2162 64.0314 40.0099 65.6068 40.4456C67.1904 40.8896 68.4999 41.9125 69.2992 43.3264L69.8691 44.3327L70.8771 43.762C72.2827 42.9553 73.9318 42.7474 75.5138 43.1822C77.0941 43.6245 78.4011 44.6475 79.2013 46.063C80.0063 47.481 80.2118 49.1293 79.7769 50.7022C79.3437 52.2742 78.3225 53.5846 76.902 54.3905L71.5728 57.4137ZM64.6841 54.9288H70.916L75.6736 52.2287C76.5168 51.7499 77.1231 50.9722 77.3807 50.0395C77.6383 49.1069 77.5165 48.1287 77.0378 47.2863C76.5624 46.4448 75.7854 45.8377 74.8478 45.576C73.9152 45.3184 72.9403 45.4409 72.1062 45.9197L70.1631 47.0205C69.4624 47.3965 68.6291 47.1629 68.2407 46.502L67.1341 44.5489C66.6603 43.7098 65.8809 43.1027 64.9392 42.8393C64.0115 42.5834 63.035 42.706 62.1951 43.1847C60.454 44.1737 59.8428 46.391 60.8293 48.1287L64.6841 54.9288Z" fill="#F5F5F5"/>
<path d="M54.5177 51.5925C54.4001 51.5925 54.2809 51.5776 54.1624 51.5453L45.4258 49.1665C42.8076 48.4517 41.2554 45.7391 41.966 43.1184C42.3123 41.8478 43.1314 40.7893 44.2728 40.1366C45.415 39.4831 46.7435 39.3141 48.0133 39.6587L48.5666 39.8094L48.7173 39.257C49.0627 37.9872 49.8819 36.9287 51.0232 36.276C52.1638 35.6242 53.4907 35.4535 54.7621 35.7981C57.3828 36.5137 58.9349 39.2272 58.2243 41.8462L55.8463 50.5787C55.679 51.1891 55.1224 51.5925 54.5177 51.5925ZM46.0793 46.7694L53.7408 48.8559L55.8272 41.1943C56.1793 39.8964 55.4098 38.5505 54.1111 38.1951C53.4832 38.0253 52.8231 38.109 52.2574 38.4328C51.6917 38.7559 51.2866 39.2802 51.1152 39.9088L50.6729 41.5331C50.4708 42.2661 49.7129 42.696 48.9815 42.498L47.3606 42.0565C46.7328 41.8859 46.0726 41.9704 45.5061 42.2943C44.9404 42.6173 44.5354 43.1416 44.3639 43.7711C44.0119 45.069 44.7805 46.4141 46.0793 46.7694ZM49.6334 40.1002L49.6367 40.101L49.6334 40.1002Z" fill="#F5F5F5"/>
<path d="M69.8889 39.0084C69.6396 39.0084 69.3944 38.9389 69.1774 38.8022L63.3323 35.1503C61.4413 33.9675 60.8632 31.4653 62.0435 29.5719C62.6175 28.6542 63.5128 28.0156 64.5647 27.772C65.62 27.5285 66.7042 27.7091 67.6211 28.2823L67.7412 28.3568L67.8157 28.2375C68.3881 27.3206 69.2834 26.682 70.337 26.4385C71.3906 26.1967 72.4748 26.3764 73.3917 26.9479C75.2851 28.1332 75.8633 30.6354 74.683 32.528L70.7578 38.8121L70.1929 38.9728C70.0918 38.9968 69.99 39.0084 69.8889 39.0084ZM64.6492 33.0448L69.5278 36.0921L72.575 31.2135C73.0306 30.483 72.8069 29.5147 72.0756 29.0567C71.7227 28.8372 71.3019 28.7676 70.8961 28.8604C70.4894 28.954 70.1432 29.2008 69.9229 29.5545L68.9712 31.0785L68.4063 31.2392C68.0551 31.3195 67.6956 31.2591 67.3908 31.0678L66.3058 30.3894C65.9521 30.1691 65.5313 30.0995 65.1247 30.1931C64.718 30.2867 64.3726 30.5335 64.1514 30.888C63.6951 31.6202 63.9187 32.5868 64.6492 33.0448Z" fill="#F5F5F5"/>
<path d="M52.1165 35.4536L51.0405 35.2283L50.7084 34.7462L47.0963 28.8696C45.9292 26.9687 46.5256 24.4698 48.4248 23.3003C49.3467 22.7337 50.4326 22.5606 51.4837 22.8108C52.5364 23.0625 53.4276 23.7078 53.9942 24.628L54.0679 24.7481L54.188 24.6744C55.1082 24.1087 56.1924 23.9331 57.2468 24.1857C58.2971 24.4358 59.1883 25.0811 59.7557 26.0013C60.9244 27.9055 60.3272 30.4036 58.4279 31.5731L52.1165 35.4536ZM51.2559 33.0665C51.2542 33.0673 51.2526 33.069 51.2509 33.0698L51.2559 33.0665ZM49.2134 27.5692L52.2258 32.4701L57.1259 29.4577C57.8597 29.0063 58.0908 28.0397 57.6394 27.3042C57.4208 26.9496 57.0762 26.6995 56.6703 26.6026C56.2645 26.5073 55.8437 26.5728 55.4884 26.7914L53.9577 27.7332L53.3796 27.6247C53.0301 27.5402 52.7335 27.3249 52.5464 27.0184L51.8771 25.93C51.6584 25.5747 51.3139 25.3254 50.9072 25.2277C50.5013 25.1308 50.0822 25.1987 49.7269 25.4165C48.9939 25.8696 48.7628 26.8345 49.2134 27.5692Z" fill="#F5F5F5"/>
<path d="M61.6259 24.8309L61.0544 24.7215C60.7115 24.6387 60.4092 24.4184 60.2261 24.1177L56.947 18.7828C55.8536 17.0012 56.4119 14.6596 58.1919 13.5638C59.0558 13.0329 60.0737 12.8697 61.0594 13.105C62.0458 13.3402 62.8816 13.9457 63.4117 14.8087L63.42 14.8212L63.4324 14.8137C64.2954 14.2828 65.3134 14.1196 66.299 14.3557C67.283 14.5909 68.1179 15.1947 68.6505 16.0578C69.7455 17.8419 69.1864 20.1834 67.4064 21.2792L61.6259 24.8309ZM60.7653 22.443L60.7628 22.4446L60.7653 22.443ZM59.064 17.4816L61.7443 21.8408L66.1044 19.1605C66.719 18.782 66.912 17.9736 66.5343 17.3582C66.3512 17.0616 66.0622 16.8521 65.7226 16.7709C65.3821 16.6897 65.0309 16.7469 64.7336 16.9291L63.3015 17.8096L62.2322 17.5801L61.9059 17.1031L61.2946 16.1083C61.1115 15.8101 60.8233 15.6014 60.4829 15.5202C60.1433 15.4391 59.7921 15.4962 59.4939 15.6784C58.8793 16.0569 58.6863 16.8662 59.064 17.4816Z" fill="#F5F5F5"/>
<path d="M72.2229 87.5148H38.7771C37.5016 87.5148 36.4637 86.4794 36.4637 85.208V65.114L41.2611 54.9287H72.2238C73.496 54.9287 74.5305 55.9632 74.5305 57.2355V85.208C74.5297 86.4794 73.4952 87.5148 72.2229 87.5148ZM38.9486 85.0299H72.0448V57.4135H42.8373L38.9486 65.6698V85.0299Z" fill="#F5F5F5"/>
<path d="M27.3478 87.1662C27.0198 87.1662 26.6868 87.0966 26.3704 86.9475L21.3246 84.5671C20.7663 84.3053 20.343 83.8398 20.1352 83.2567C19.9289 82.6786 19.9596 82.0524 20.2213 81.4942L36.1051 47.7759C36.3677 47.2159 36.8349 46.7919 37.4196 46.5823C38.0011 46.3736 38.6281 46.4042 39.183 46.6676L44.2231 49.0464C45.3752 49.5865 45.8747 50.9655 45.333 52.1185L45.3321 52.121L29.4442 85.8376C29.0507 86.6734 28.2166 87.1662 27.3478 87.1662ZM22.5446 82.3945L27.2691 84.6234L43.0113 51.2198L38.2819 48.9884L22.5446 82.3945Z" fill="#F5F5F5"/>
<path d="M54.3495 73.6471H36.4637V66.3831H54.3495V73.6471ZM38.9486 71.1623H51.8647V68.8679H38.9486V71.1623Z" fill="#F5F5F5"/>
<path d="M74.5297 73.6471H56.6431V66.3831H74.5289L74.5297 73.6471ZM59.1279 71.1623H72.044V68.8679H59.1279V71.1623Z" fill="#F5F5F5"/>
<path d="M59.1279 87.5148H51.8639V54.9287H59.1279V87.5148ZM54.3495 85.0299H56.6439V57.4135H54.3495V85.0299Z" fill="#F5F5F5"/>
<path d="M35.7316 72.422L26.5427 67.9924L29.8219 61.1898L39.0108 65.6194L35.7316 72.422ZM29.86 66.8336L34.5729 69.1056L35.6944 66.779L30.9815 64.507L29.86 66.8336Z" fill="#F5F5F5"/>
<defs>
<radialGradient id="paint0_radial_124_429" cx="0" cy="0" r="1" gradientUnits="userSpaceOnUse" gradientTransform="translate(50 50) rotate(95.1282) scale(117.47)">
<stop stop-color="#EE7676"/>
<stop offset="0.9999" stop-color="#F40062"/>
<stop offset="1" stop-color="#B28597"/>
</radialGradient>
</defs>
</svg>
