<svg width="194" height="34" viewBox="0 0 194 34" fill="none" xmlns="http://www.w3.org/2000/svg">
<path d="M27.0031 29.8598C26.4457 29.8598 26.0151 29.7078 25.7111 29.4038C25.4071 29.0871 25.2551 28.6438 25.2551 28.0738V18.0988C25.2551 17.5161 25.4071 17.0728 25.7111 16.7688C26.0277 16.4521 26.4837 16.2938 27.0791 16.2938H35.8001C36.3954 16.2938 36.8451 16.4521 37.1491 16.7688C37.4657 17.0728 37.6241 17.5161 37.6241 18.0988V28.0738C37.6241 28.6438 37.4721 29.0871 37.1681 29.4038C36.8767 29.7078 36.4461 29.8598 35.8761 29.8598C35.3187 29.8598 34.8881 29.7078 34.5841 29.4038C34.2801 29.0871 34.1281 28.6438 34.1281 28.0738V19.1438H28.7511V28.0738C28.7511 28.6438 28.6054 29.0871 28.3141 29.4038C28.0227 29.7078 27.5857 29.8598 27.0031 29.8598ZM44.7357 29.8978C43.697 29.8978 42.7914 29.7015 42.0187 29.3088C41.246 28.9161 40.6444 28.3525 40.2137 27.6178C39.783 26.8831 39.5677 26.0155 39.5677 25.0148C39.5677 24.2548 39.688 23.5771 39.9287 22.9818C40.1694 22.3738 40.5177 21.8608 40.9737 21.4428C41.4297 21.0121 41.9744 20.6891 42.6077 20.4738C43.241 20.2458 43.9504 20.1318 44.7357 20.1318C45.7744 20.1318 46.68 20.3281 47.4527 20.7208C48.2254 21.1135 48.8207 21.6771 49.2387 22.4118C49.6694 23.1338 49.8847 24.0015 49.8847 25.0148C49.8847 25.7621 49.7644 26.4398 49.5237 27.0478C49.283 27.6558 48.9347 28.1751 48.4787 28.6058C48.0354 29.0238 47.4907 29.3468 46.8447 29.5748C46.2114 29.7901 45.5084 29.8978 44.7357 29.8978ZM44.7357 27.4088C45.0777 27.4088 45.3817 27.3265 45.6477 27.1618C45.9137 26.9845 46.1164 26.7248 46.2557 26.3828C46.4077 26.0281 46.4837 25.5721 46.4837 25.0148C46.4837 24.1661 46.319 23.5581 45.9897 23.1908C45.6604 22.8108 45.2424 22.6208 44.7357 22.6208C44.3937 22.6208 44.0897 22.7031 43.8237 22.8678C43.5577 23.0325 43.3487 23.2921 43.1967 23.6468C43.0447 23.9888 42.9687 24.4448 42.9687 25.0148C42.9687 25.8508 43.1334 26.4588 43.4627 26.8388C43.792 27.2188 44.2164 27.4088 44.7357 27.4088ZM52.5284 32.3298C52.0724 32.3298 51.7177 32.2031 51.4644 31.9498C51.211 31.6965 51.0844 31.3291 51.0844 30.8478V28.6438C51.0844 27.6431 51.5847 27.1428 52.5854 27.1428H53.8394L51.8444 27.8648C52.1357 27.4341 52.37 27.0035 52.5474 26.5728C52.7247 26.1421 52.8514 25.6355 52.9274 25.0528C53.0034 24.4701 53.0414 23.7418 53.0414 22.8678V22.2218C53.0414 21.6011 53.1997 21.1325 53.5164 20.8158C53.8457 20.4991 54.308 20.3408 54.9034 20.3408H59.2354C59.8434 20.3408 60.3057 20.4991 60.6224 20.8158C60.9517 21.1325 61.1164 21.6011 61.1164 22.2218V28.7198L59.5394 27.1428H61.1924C61.6737 27.1428 62.041 27.2758 62.2944 27.5418C62.5604 27.7951 62.6934 28.1625 62.6934 28.6438V30.8478C62.6934 31.8358 62.2184 32.3298 61.2684 32.3298C60.7997 32.3298 60.445 32.2031 60.2044 31.9498C59.9637 31.6965 59.8434 31.3291 59.8434 30.8478V29.6888H53.9344V30.8478C53.9344 31.8358 53.4657 32.3298 52.5284 32.3298ZM55.2074 27.1618H57.9624V22.8868H55.8724V23.7798C55.8724 24.3878 55.8154 24.9958 55.7014 25.6038C55.5874 26.2118 55.4227 26.7311 55.2074 27.1618ZM67.3562 29.8978C66.6342 29.8978 65.9946 29.7648 65.4372 29.4988C64.8926 29.2328 64.4619 28.8718 64.1452 28.4158C63.8412 27.9471 63.6892 27.4151 63.6892 26.8198C63.6892 26.1358 63.8666 25.5975 64.2212 25.2048C64.5759 24.8121 65.1459 24.5335 65.9312 24.3688C66.7166 24.1915 67.7616 24.1028 69.0662 24.1028H70.1112V25.6988H69.0662C68.5722 25.6988 68.1606 25.7368 67.8312 25.8128C67.5146 25.8761 67.2802 25.9838 67.1282 26.1358C66.9762 26.2751 66.9002 26.4588 66.9002 26.6868C66.9002 26.9781 67.0016 27.2188 67.2042 27.4088C67.4196 27.5988 67.7236 27.6938 68.1162 27.6938C68.4329 27.6938 68.7116 27.6241 68.9522 27.4848C69.2056 27.3455 69.4082 27.1555 69.5602 26.9148C69.7122 26.6615 69.7882 26.3701 69.7882 26.0408V23.8368C69.7882 23.3808 69.6679 23.0578 69.4272 22.8678C69.1992 22.6778 68.8002 22.5828 68.2302 22.5828C67.9262 22.5828 67.5842 22.6208 67.2042 22.6968C66.8242 22.7601 66.3999 22.8805 65.9312 23.0578C65.5892 23.1845 65.2979 23.2035 65.0572 23.1148C64.8166 23.0261 64.6266 22.8741 64.4872 22.6588C64.3606 22.4435 64.2972 22.2091 64.2972 21.9558C64.3099 21.7025 64.3922 21.4618 64.5442 21.2338C64.7089 21.0058 64.9559 20.8285 65.2852 20.7018C65.8932 20.4738 66.4506 20.3218 66.9572 20.2458C67.4766 20.1698 67.9516 20.1318 68.3822 20.1318C69.4209 20.1318 70.2759 20.2838 70.9472 20.5878C71.6312 20.8791 72.1379 21.3351 72.4672 21.9558C72.8092 22.5638 72.9802 23.3491 72.9802 24.3118V28.1498C72.9802 28.7071 72.8472 29.1315 72.5812 29.4228C72.3152 29.7141 71.9289 29.8598 71.4222 29.8598C70.9029 29.8598 70.5039 29.7141 70.2252 29.4228C69.9592 29.1315 69.8262 28.7071 69.8262 28.1498V27.6558L69.9402 27.9218C69.8769 28.3271 69.7312 28.6755 69.5032 28.9668C69.2752 29.2581 68.9776 29.4861 68.6102 29.6508C68.2429 29.8155 67.8249 29.8978 67.3562 29.8978ZM76.9121 33.2798C76.3801 33.2798 75.9684 33.1341 75.6771 32.8428C75.3857 32.5515 75.2401 32.1271 75.2401 31.5698V21.8608C75.2401 21.3161 75.3794 20.8981 75.6581 20.6068C75.9494 20.3155 76.3611 20.1698 76.8931 20.1698C77.4377 20.1698 77.8494 20.3155 78.1281 20.6068C78.4194 20.8981 78.5651 21.3161 78.5651 21.8608V22.9628L78.3561 22.0318C78.5334 21.4618 78.9007 21.0058 79.4581 20.6638C80.0281 20.3091 80.6741 20.1318 81.3961 20.1318C82.2067 20.1318 82.9161 20.3281 83.5241 20.7208C84.1447 21.1135 84.6261 21.6708 84.9681 22.3928C85.3101 23.1148 85.4811 23.9888 85.4811 25.0148C85.4811 26.0155 85.3101 26.8831 84.9681 27.6178C84.6261 28.3525 84.1447 28.9161 83.5241 29.3088C82.9161 29.7015 82.2067 29.8978 81.3961 29.8978C80.6994 29.8978 80.0724 29.7331 79.5151 29.4038C78.9577 29.0745 78.5841 28.6438 78.3941 28.1118H78.6221V31.5698C78.6221 32.1271 78.4701 32.5515 78.1661 32.8428C77.8747 33.1341 77.4567 33.2798 76.9121 33.2798ZM80.3321 27.4088C80.6741 27.4088 80.9717 27.3265 81.2251 27.1618C81.4911 26.9845 81.7001 26.7248 81.8521 26.3828C82.0041 26.0281 82.0801 25.5721 82.0801 25.0148C82.0801 24.1661 81.9154 23.5581 81.5861 23.1908C81.2567 22.8108 80.8387 22.6208 80.3321 22.6208C79.9901 22.6208 79.6861 22.7031 79.4201 22.8678C79.1541 23.0325 78.9451 23.2921 78.7931 23.6468C78.6411 23.9888 78.5651 24.4448 78.5651 25.0148C78.5651 25.8508 78.7297 26.4588 79.0591 26.8388C79.3884 27.2188 79.8127 27.4088 80.3321 27.4088ZM89.9063 33.2798C89.5136 33.2798 89.1969 33.1785 88.9563 32.9758C88.7156 32.7731 88.5636 32.5071 88.5003 32.1778C88.4496 31.8485 88.5066 31.5001 88.6713 31.1328L89.9443 28.3778V29.7458L86.6953 22.3168C86.5306 21.9368 86.4736 21.5821 86.5243 21.2528C86.5876 20.9235 86.7586 20.6638 87.0373 20.4738C87.3159 20.2711 87.6959 20.1698 88.1773 20.1698C88.5826 20.1698 88.9056 20.2648 89.1463 20.4548C89.3996 20.6321 89.6276 20.9868 89.8303 21.5188L91.7303 26.4588H91.0843L93.0983 21.4998C93.3009 20.9805 93.5289 20.6321 93.7823 20.4548C94.0483 20.2648 94.4029 20.1698 94.8463 20.1698C95.2263 20.1698 95.5303 20.2711 95.7583 20.4738C95.9863 20.6638 96.1256 20.9235 96.1763 21.2528C96.2269 21.5821 96.1699 21.9368 96.0053 22.3168L91.6923 32.0068C91.4643 32.5135 91.2109 32.8491 90.9323 33.0138C90.6663 33.1911 90.3243 33.2798 89.9063 33.2798ZM99.4746 29.8598C98.9426 29.8598 98.5246 29.7141 98.2206 29.4228C97.9292 29.1315 97.7836 28.7071 97.7836 28.1498V21.8608C97.7836 21.3035 97.9292 20.8855 98.2206 20.6068C98.5246 20.3155 98.9426 20.1698 99.4746 20.1698C100.019 20.1698 100.437 20.3155 100.729 20.6068C101.02 20.8855 101.166 21.3035 101.166 21.8608V23.6278H104.149V21.8608C104.149 21.3035 104.294 20.8855 104.586 20.6068C104.877 20.3155 105.295 20.1698 105.84 20.1698C106.372 20.1698 106.783 20.3155 107.075 20.6068C107.379 20.8855 107.531 21.3035 107.531 21.8608V28.1498C107.531 28.7071 107.379 29.1315 107.075 29.4228C106.783 29.7141 106.372 29.8598 105.84 29.8598C105.295 29.8598 104.877 29.7141 104.586 29.4228C104.294 29.1315 104.149 28.7071 104.149 28.1498V26.2308H101.166V28.1498C101.166 28.7071 101.02 29.1315 100.729 29.4228C100.45 29.7141 100.032 29.8598 99.4746 29.8598ZM114.557 29.8978C113.518 29.8978 112.613 29.7015 111.84 29.3088C111.067 28.9161 110.466 28.3525 110.035 27.6178C109.604 26.8831 109.389 26.0155 109.389 25.0148C109.389 24.2548 109.509 23.5771 109.75 22.9818C109.991 22.3738 110.339 21.8608 110.795 21.4428C111.251 21.0121 111.796 20.6891 112.429 20.4738C113.062 20.2458 113.772 20.1318 114.557 20.1318C115.596 20.1318 116.501 20.3281 117.274 20.7208C118.047 21.1135 118.642 21.6771 119.06 22.4118C119.491 23.1338 119.706 24.0015 119.706 25.0148C119.706 25.7621 119.586 26.4398 119.345 27.0478C119.104 27.6558 118.756 28.1751 118.3 28.6058C117.857 29.0238 117.312 29.3468 116.666 29.5748C116.033 29.7901 115.33 29.8978 114.557 29.8978ZM114.557 27.4088C114.899 27.4088 115.203 27.3265 115.469 27.1618C115.735 26.9845 115.938 26.7248 116.077 26.3828C116.229 26.0281 116.305 25.5721 116.305 25.0148C116.305 24.1661 116.14 23.5581 115.811 23.1908C115.482 22.8108 115.064 22.6208 114.557 22.6208C114.215 22.6208 113.911 22.7031 113.645 22.8678C113.379 23.0325 113.17 23.2921 113.018 23.6468C112.866 23.9888 112.79 24.4448 112.79 25.0148C112.79 25.8508 112.955 26.4588 113.284 26.8388C113.613 27.2188 114.038 27.4088 114.557 27.4088ZM129.038 29.8598C128.493 29.8598 128.081 29.7078 127.803 29.4038C127.524 29.0871 127.385 28.6375 127.385 28.0548V26.7818C127.055 26.8958 126.739 26.9781 126.435 27.0288C126.131 27.0795 125.833 27.1048 125.542 27.1048C124.085 27.1048 122.996 26.7501 122.274 26.0408C121.552 25.3188 121.191 24.2485 121.191 22.8298V21.8608C121.191 21.3161 121.336 20.8981 121.628 20.6068C121.919 20.3155 122.337 20.1698 122.882 20.1698C123.426 20.1698 123.844 20.3155 124.136 20.6068C124.427 20.8981 124.573 21.3161 124.573 21.8608V22.5258C124.573 23.1971 124.693 23.6785 124.934 23.9698C125.187 24.2611 125.624 24.4068 126.245 24.4068C126.447 24.4068 126.637 24.3878 126.815 24.3498C127.005 24.3118 127.169 24.2548 127.309 24.1788V21.9558C127.309 20.7651 127.872 20.1698 129 20.1698C129.57 20.1698 129.994 20.3218 130.273 20.6258C130.551 20.9298 130.691 21.3731 130.691 21.9558V28.0548C130.691 28.6375 130.551 29.0871 130.273 29.4038C130.007 29.7078 129.595 29.8598 129.038 29.8598ZM137.713 29.8978C136.675 29.8978 135.769 29.7015 134.996 29.3088C134.224 28.9161 133.622 28.3525 133.191 27.6178C132.761 26.8831 132.545 26.0155 132.545 25.0148C132.545 24.2548 132.666 23.5771 132.906 22.9818C133.147 22.3738 133.495 21.8608 133.951 21.4428C134.407 21.0121 134.952 20.6891 135.585 20.4738C136.219 20.2458 136.928 20.1318 137.713 20.1318C138.752 20.1318 139.658 20.3281 140.43 20.7208C141.203 21.1135 141.798 21.6771 142.216 22.4118C142.647 23.1338 142.862 24.0015 142.862 25.0148C142.862 25.7621 142.742 26.4398 142.501 27.0478C142.261 27.6558 141.912 28.1751 141.456 28.6058C141.013 29.0238 140.468 29.3468 139.822 29.5748C139.189 29.7901 138.486 29.8978 137.713 29.8978ZM137.713 27.4088C138.055 27.4088 138.359 27.3265 138.625 27.1618C138.891 26.9845 139.094 26.7248 139.233 26.3828C139.385 26.0281 139.461 25.5721 139.461 25.0148C139.461 24.1661 139.297 23.5581 138.967 23.1908C138.638 22.8108 138.22 22.6208 137.713 22.6208C137.371 22.6208 137.067 22.7031 136.801 22.8678C136.535 23.0325 136.326 23.2921 136.174 23.6468C136.022 23.9888 135.946 24.4448 135.946 25.0148C135.946 25.8508 136.111 26.4588 136.44 26.8388C136.77 27.2188 137.194 27.4088 137.713 27.4088ZM146.418 29.8598C145.886 29.8598 145.468 29.7141 145.164 29.4228C144.873 29.1315 144.727 28.7071 144.727 28.1498V21.8798C144.727 21.3225 144.873 20.8981 145.164 20.6068C145.468 20.3155 145.886 20.1698 146.418 20.1698C146.963 20.1698 147.381 20.3155 147.672 20.6068C147.963 20.8981 148.109 21.3225 148.109 21.8798V23.6468H149.021L150.883 20.9488C151.111 20.5941 151.383 20.3661 151.7 20.2648C152.017 20.1508 152.321 20.1381 152.612 20.2268C152.916 20.3155 153.169 20.4738 153.372 20.7018C153.575 20.9298 153.689 21.2021 153.714 21.5188C153.739 21.8355 153.632 22.1711 153.391 22.5258L151.567 25.2048L150.94 24.1028C151.269 24.1408 151.573 24.2485 151.852 24.4258C152.131 24.5905 152.384 24.7995 152.612 25.0528C152.84 25.3061 153.036 25.5911 153.201 25.9078L154.113 27.5988C154.303 27.9788 154.36 28.3271 154.284 28.6438C154.221 28.9605 154.062 29.2265 153.809 29.4418C153.568 29.6445 153.283 29.7711 152.954 29.8218C152.625 29.8851 152.302 29.8471 151.985 29.7078C151.668 29.5685 151.409 29.3088 151.206 28.9288L150.199 27.0288C150.085 26.8261 149.971 26.6678 149.857 26.5538C149.743 26.4271 149.616 26.3448 149.477 26.3068C149.338 26.2561 149.173 26.2308 148.983 26.2308H148.109V28.1498C148.109 28.7071 147.963 29.1315 147.672 29.4228C147.381 29.7141 146.963 29.8598 146.418 29.8598Z" fill="#333333"/>
<path d="M20.2662 21.1908H16.9903L15.1952 18.0714C14.542 16.9381 14.9469 15.4916 16.0984 14.8475C16.655 14.5343 17.3027 14.4545 17.9218 14.6231C18.5441 14.7949 19.0587 15.1909 19.3728 15.7381L19.5967 16.1276L19.9928 15.9067C20.5452 15.5945 21.1932 15.514 21.8149 15.6823C22.4359 15.8535 22.9495 16.2495 23.2639 16.7974C23.5803 17.3462 23.661 17.9842 23.4901 18.593C23.3199 19.2015 22.9186 19.7087 22.3604 20.0206L20.2662 21.1908ZM17.5592 20.229H20.0081L21.8777 19.1838C22.209 18.9985 22.4473 18.6975 22.5485 18.3365C22.6497 17.9755 22.6019 17.5969 22.4138 17.2709C22.2269 16.9451 21.9216 16.7101 21.5532 16.6088C21.1867 16.5091 20.8036 16.5566 20.4759 16.7419L19.7123 17.168C19.4369 17.3135 19.1095 17.2231 18.9568 16.9673L18.522 16.2113C18.3358 15.8865 18.0295 15.6516 17.6595 15.5496C17.2949 15.4505 16.9112 15.498 16.5811 15.6833C15.897 16.0661 15.6568 16.9243 16.0444 17.5969L17.5592 20.229Z" fill="#F40062"/>
<path d="M13.5642 18.9376C13.518 18.9376 13.4711 18.9318 13.4246 18.9193L9.99138 17.9986C8.96253 17.7219 8.35258 16.672 8.63184 15.6576C8.76789 15.1658 9.08979 14.7561 9.53831 14.5035C9.98715 14.2505 10.5092 14.1851 11.0082 14.3185L11.2256 14.3768L11.2848 14.163C11.4206 13.6715 11.7425 13.2618 12.191 13.0092C12.6392 12.7569 13.1606 12.6908 13.6602 12.8242C14.69 13.1012 15.3 14.1515 15.0207 15.1652L14.0863 18.5452C14.0205 18.7815 13.8018 18.9376 13.5642 18.9376ZM10.2482 17.0708L13.2589 17.8784L14.0788 14.9129C14.2171 14.4105 13.9147 13.8895 13.4044 13.752C13.1577 13.6863 12.8983 13.7187 12.676 13.844C12.4537 13.969 12.2945 14.172 12.2271 14.4153L12.0533 15.044C11.9739 15.3277 11.6761 15.4941 11.3887 15.4175L10.7517 15.2466C10.505 15.1806 10.2456 15.2133 10.023 15.3386C9.80065 15.4636 9.64149 15.6666 9.57411 15.9102C9.43578 16.4126 9.73783 16.9332 10.2482 17.0708ZM11.6448 14.4894L11.6461 14.4897L11.6448 14.4894Z" fill="#F40062"/>
<path d="M19.6045 14.0669C19.5065 14.0669 19.4102 14.04 19.3249 13.9871L17.028 12.5736C16.2849 12.1158 16.0577 11.1472 16.5215 10.4144C16.7471 10.0592 17.099 9.81197 17.5123 9.71772C17.927 9.62347 18.353 9.69335 18.7133 9.91521L18.7605 9.94406L18.7898 9.89789C19.0147 9.543 19.3666 9.29582 19.7806 9.20156C20.1946 9.10795 20.6207 9.17752 20.981 9.39873C21.725 9.8575 21.9522 10.826 21.4884 11.5586L19.9459 13.9909L19.724 14.0531C19.6843 14.0624 19.6442 14.0669 19.6045 14.0669ZM17.5455 11.7586L19.4626 12.9381L20.6601 11.0498C20.8391 10.767 20.7512 10.3922 20.4638 10.215C20.3251 10.13 20.1598 10.1031 20.0003 10.139C19.8405 10.1752 19.7044 10.2707 19.6179 10.4076L19.2439 10.9975L19.0219 11.0597C18.8839 11.0908 18.7426 11.0674 18.6229 10.9934L18.1965 10.7308C18.0575 10.6455 17.8922 10.6186 17.7323 10.6548C17.5725 10.691 17.4368 10.7866 17.3499 10.9238C17.1706 11.2072 17.2584 11.5813 17.5455 11.7586Z" fill="#F40062"/>
<path d="M12.6206 12.6909L12.1978 12.6037L12.0673 12.4171L10.6479 10.1425C10.1893 9.40674 10.4236 8.43952 11.1699 7.98684C11.5322 7.76755 11.9589 7.70055 12.3719 7.79737C12.7856 7.89483 13.1359 8.14457 13.3585 8.50075L13.3874 8.54723L13.4346 8.5187C13.7963 8.29974 14.2223 8.23177 14.6366 8.32955C15.0494 8.42637 15.3996 8.67611 15.6225 9.03229C16.0818 9.76934 15.8471 10.7362 15.1008 11.1889L12.6206 12.6909ZM12.2824 11.767C12.2818 11.7673 12.2811 11.7679 12.2805 11.7682L12.2824 11.767ZM11.4798 9.63917L12.6636 11.5361L14.5891 10.3701C14.8775 10.1954 14.9683 9.82127 14.7909 9.53659C14.705 9.39937 14.5696 9.30255 14.4101 9.26504C14.2506 9.22817 14.0853 9.2535 13.9456 9.33814L13.3442 9.70265L13.117 9.66065C12.9796 9.62795 12.8631 9.5446 12.7895 9.42598L12.5265 9.00472C12.4406 8.86719 12.3052 8.77069 12.1454 8.73286C11.9859 8.69535 11.8212 8.72164 11.6816 8.80595C11.3935 8.98132 11.3027 9.35481 11.4798 9.63917Z" fill="#F40062"/>
<path d="M16.3575 8.57927L16.1329 8.53695C15.9982 8.50489 15.8794 8.41961 15.8074 8.30324L14.5188 6.2383C14.0892 5.5487 14.3086 4.64238 15.008 4.21824C15.3475 4.01274 15.7475 3.94958 16.1349 4.04063C16.5225 4.13168 16.8509 4.36603 17.0592 4.70009L17.0625 4.7049L17.0674 4.70201C17.4065 4.49651 17.8065 4.43336 18.1939 4.52472C18.5805 4.61577 18.9086 4.84949 19.1179 5.18354C19.5482 5.8741 19.3285 6.78042 18.629 7.20456L16.3575 8.57927ZM16.0193 7.655L16.0183 7.65564L16.0193 7.655ZM15.3508 5.73464L16.404 7.42192L18.1174 6.38449C18.3589 6.23797 18.4347 5.92508 18.2863 5.68687C18.2144 5.5721 18.1008 5.49099 17.9673 5.45957C17.8335 5.42816 17.6955 5.45028 17.5787 5.52081L17.0159 5.8616L16.5957 5.77279L16.4675 5.58813L16.2273 5.2031C16.1554 5.08769 16.0421 5.0069 15.9083 4.97548C15.7749 4.94406 15.6369 4.96618 15.5197 5.03671C15.2782 5.18322 15.2023 5.49644 15.3508 5.73464Z" fill="#F40062"/>
<path d="M20.5217 32.8417H7.37872C6.87748 32.8417 6.46965 32.441 6.46965 31.9489V24.1713L8.35484 20.229H20.522C21.022 20.229 21.4285 20.6294 21.4285 21.1218V31.9489C21.4282 32.441 21.0216 32.8417 20.5217 32.8417ZM7.4461 31.88H20.4517V21.1908H8.97424L7.4461 24.3864V31.88Z" fill="#F40062"/>
<path d="M2.88741 32.7068C2.75852 32.7068 2.62767 32.6799 2.50334 32.6222L0.520502 31.7008C0.301127 31.5995 0.134806 31.4193 0.0531096 31.1936C-0.0279355 30.9698 -0.0158926 30.7275 0.0869598 30.5114L6.32873 17.4604C6.43191 17.2436 6.61548 17.0795 6.84527 16.9984C7.07376 16.9176 7.32015 16.9295 7.53822 17.0314L9.51878 17.9522C9.97153 18.1612 10.1678 18.695 9.95493 19.1412L9.9546 19.1422L3.7112 32.1926C3.5566 32.5161 3.22884 32.7068 2.88741 32.7068ZM0.999937 30.8599L2.85649 31.7226L9.0426 18.7934L7.1841 17.9297L0.999937 30.8599Z" fill="#F40062"/>
<path d="M13.4981 27.4741H6.46965V24.6625H13.4981V27.4741ZM7.4461 26.5123H12.5217V25.6243H7.4461V26.5123Z" fill="#F40062"/>
<path d="M21.4282 27.4741H14.3994V24.6625H21.4279L21.4282 27.4741ZM15.3758 26.5123H20.4514V25.6243H15.3758V26.5123Z" fill="#F40062"/>
<path d="M15.3758 32.8417H12.5213V20.229H15.3758V32.8417ZM13.4981 31.88H14.3997V21.1908H13.4981V31.88Z" fill="#F40062"/>
<path d="M6.18194 26.9999L2.57104 25.2854L3.85963 22.6523L7.47053 24.3669L6.18194 26.9999ZM3.8746 24.8369L5.72659 25.7163L6.1673 24.8157L4.3153 23.9363L3.8746 24.8369Z" fill="#F40062"/>
</svg>
